<?xml version="1.0" encoding="utf-8"?>
<!-- Generator: Adobe Illustrator 26.0.1, SVG Export Plug-In . SVG Version: 6.00 Build 0)  -->
<svg version="1.1" id="Layer_1" xmlns="http://www.w3.org/2000/svg" xmlns:xlink="http://www.w3.org/1999/xlink" x="0px" y="0px"
	 viewBox="0 0 1000 1000" style="enable-background:new 0 0 1000 1000;" xml:space="preserve">
<style type="text/css">
	.st0{fill:#33D9FA;}
	.st1{fill:#FFFFFF;}
</style>
<g>
	<path class="st0" d="M978.48,522.86c-2.03,3.42-3.05,7.48-2.86,11.55c0,0.55,0.09,1.2,0.18,1.75c0.37,3.42,1.57,6.83,2.49,10.25
		c1.85,6.93,3.14,14.13,4.43,21.15c0.74,3.88,1.39,7.76,1.94,11.64c0.65,3.88,1.11,7.76,1.66,11.73c0.46,3.88,0.83,7.85,1.2,11.82
		c0.37,3.97,0.65,7.94,0.92,11.91c0.18,4.06,0.37,8.04,0.55,12.1c0,1.29,0,2.59,0.09,3.88c0.55,31.96-2.77,63.91-9.98,95.04
		c-7.11,30.39-17.83,59.85-32.05,87.65c-14.04,27.43-31.4,53.2-51.54,76.48c-20.13,23.37-43.13,44.33-68.26,62.25
		c-26.42,18.75-56.06,33.34-85.9,46c36.85-59.11,58.19-128.84,58.19-203.66c0-50.24-9.7-98.18-27.15-142.14
		c-1.2-2.96-2.4-5.91-3.6-8.77c-0.09-0.28-0.18-0.46-0.28-0.74c-3.05-7.48-6.28-14.78-9.79-21.98
		c-6.37-13.12-13.39-25.86-21.06-38.14c-7.76-12.28-16.16-24.11-25.31-35.47s-18.84-22.26-29.28-32.42
		c-10.99-10.9-22.72-21.24-35.28-30.29c-5.91-4.34-12.1-8.13-18.38-11.92c-3.88-2.31-8.13-4.16-11.82-6.83
		c-1.48-1.02-3.79-2.4-3.88-4.34c-0.09-1.85,1.57-2.86,3.23-3.23c6.56-1.57,13.49-1.39,19.86-3.69c7.3-2.68,13.67-7.39,18.56-13.39
		c1.48-1.75,2.86-3.69,4.06-5.63c3.42-5.63,5.73-12.01,6.83-18.56c2.96-18.2-5.54-32.14-17.64-44.7c-1.11-1.11-2.12-2.22-3.05-3.32
		c-2.31-2.49-4.53-4.99-6.74-7.48c-0.55-0.65-1.11-1.2-1.66-1.85c-0.28-0.37-0.55-0.74-0.83-1.02
		c-7.02-7.94-13.67-16.07-19.86-24.57c-6.28-8.68-12.19-17.64-17.55-26.78c-1.57-2.68-3.14-5.36-4.71-8.04
		c-1.57-2.77-3.05-5.45-4.53-8.13c-1.29-2.4-2.59-4.8-3.79-7.3c-0.92-1.66-1.75-3.32-2.49-4.99c-1.66-3.23-3.23-6.47-4.71-9.79
		c-1.66-3.79-3.33-7.57-4.99-11.36c-1.57-3.88-3.14-7.76-4.62-11.64c-11.91-31.31-19.86-64.19-23.55-97.53
		c-1.2-10.71-1.94-21.52-2.22-32.33c-0.37-11.55-0.18-23.18,0.65-34.82c0.18-2.59,0.37-5.08,0.55-7.57
		c0.09-1.39,0.18-2.86,0.46-4.25c0.18-2.77,0.55-5.45,0.83-8.22c0.28-2.96,0.65-5.91,1.11-8.87c0.09-0.74,0.18-1.57,0.37-2.31
		c0.55-3.69,1.2-7.39,1.85-11.08c0.28-1.94,0.65-3.88,1.11-5.82c0.55-2.86,1.2-5.73,1.85-8.59c1.75-7.76,3.79-15.52,6-23.27
		c0.18-0.65,0.74-1.02,1.29-1.02s1.2,0.37,1.29,1.11c5.45,31.59,12.93,62.44,25.31,92.08c12.47,30.11,28.82,58.56,48.49,84.6
		c19.49,25.77,42.21,49.14,67.52,69.27c18.84,14.96,39.07,28.17,60.31,39.44c0.18,0.09,0.46,0.28,0.74,0.37
		c6.56,3.51,13.3,6.74,20.13,9.79c0.09,0.09,0.18,0.18,0.37,0.18c34.73,16.07,72.23,26.14,110.19,30.94
		c16.44,2.03,32.97,3.14,49.6,3.14c17.18,0,34.36-1.2,51.63-3.51c1.39,0,1.85,1.85,0.46,2.4c-21.52,9.24-39.53,26.51-49.41,47.84
		c-11.18,24.29-12.47,53.02-2.31,77.86c5.45,13.39,14.04,25.03,24.75,34.73c0.09,0.09,0.09,0.09,0.18,0.18
		c9.14,8.31,20.23,13.67,31.22,19.03h-0.37C991.13,511.5,983.01,515.19,978.48,522.86z"/>
	<path class="st1" d="M753.39,794.4c0,71.3-22.07,137.53-59.85,192.2c-1.48,2.12-2.96,4.25-4.53,6.37l-0.09,0.09
		c-4.43,4.25-10.34,6.93-16.99,6.93H0.09V0h167.08c104.18,0,187.03,21.06,248.64,63.18c61.61,42.12,92.36,104.83,92.36,188.23
		c0,61.61-15.15,112.96-45.53,154.15c-1.48,2.03-2.96,4.06-4.53,6c-8.5,10.9-17.73,21.06-27.89,30.39c14.13,4.16,29,9.05,44.7,14.59
		c8.5,2.96,16.72,6.19,24.75,9.51C645.52,504.11,753.39,636.93,753.39,794.4z"/>
</g>
<g>
</g>
<g>
</g>
<g>
</g>
<g>
</g>
<g>
</g>
</svg>
