<?xml version="1.0" encoding="utf-8"?>
<!-- Generator: Adobe Illustrator 26.0.1, SVG Export Plug-In . SVG Version: 6.00 Build 0)  -->
<svg version="1.1" xmlns="http://www.w3.org/2000/svg" xmlns:xlink="http://www.w3.org/1999/xlink" x="0px" y="0px"
	 viewBox="0 0 97.1 12.7" style="enable-background:new 0 0 97.1 12.7;" xml:space="preserve">
<style type="text/css">
	.st0{display:none;}
	.st1{display:inline;}
	.st2{fill:none;stroke:#E3C48E;stroke-width:0.75;stroke-miterlimit:9.9999;}
	.st3{fill:none;stroke:#E3C48E;stroke-width:0.75;stroke-miterlimit:10;}
	.st4{fill:#E3C48E;}
	.st5{fill:none;stroke:#000000;stroke-width:0.25;stroke-miterlimit:10;}
	.st6{fill:#FFFFFF;}
	.st7{fill:#33D9FA;}
</style>
<g id="Layer_1" class="st0">
	<g class="st1">
		<rect x="31.6" y="3" transform="matrix(0.7071 -0.7071 0.7071 0.7071 5.712 26.6089)" class="st2" width="6.8" height="6.8"/>
		<rect x="58.7" y="3" transform="matrix(0.7071 -0.7071 0.7071 0.7071 13.6672 45.7713)" class="st2" width="6.8" height="6.8"/>
		<polygon class="st3" points="48.6,12.1 39.8,6.4 48.6,0.6 57.3,6.4 		"/>
		<line class="st3" x1="3.2" y1="6.4" x2="30.2" y2="6.4"/>
		<circle class="st4" cx="2.6" cy="6.4" r="2.5"/>
		<line class="st3" x1="93.9" y1="6.4" x2="66.9" y2="6.4"/>
		<circle class="st4" cx="94.4" cy="6.4" r="2.5"/>
	</g>
</g>
<g id="Layer_2">
	<line class="st5" x1="48.5" y1="12.7" x2="48.5" y2="0"/>
	<g>
		<path class="st6" d="M48.5,12.6c-3.4,0-6.2-2.8-6.2-6.2c0-3.4,2.8-6.2,6.2-6.2c3.4,0,6.2,2.8,6.2,6.2C54.8,9.8,52,12.6,48.5,12.6z
			"/>
		<path class="st6" d="M48.5,0.2c3.4,0,6.1,2.7,6.1,6.1s-2.7,6.1-6.1,6.1s-6.1-2.7-6.1-6.1S45.2,0.2,48.5,0.2 M48.5,0
			c-3.5,0-6.3,2.8-6.3,6.3s2.8,6.3,6.3,6.3s6.3-2.8,6.3-6.3S52.1,0,48.5,0L48.5,0z"/>
	</g>
	<g>
		<path class="st7" d="M68.5,11.7c-0.1-0.1-0.2-0.1-0.3-0.1c0,0,0,0,0,0c-0.1,0-0.2,0-0.3,0.1c-0.2,0-0.4,0.1-0.5,0.1
			c-0.1,0-0.2,0-0.3,0c-0.1,0-0.2,0-0.3,0c-0.1,0-0.2,0-0.3,0c-0.1,0-0.2,0-0.3,0c-0.1,0-0.2,0-0.3,0c0,0-0.1,0-0.1,0
			c-0.8,0-1.6-0.1-2.4-0.3c-0.8-0.2-1.5-0.5-2.2-0.8c-0.7-0.4-1.4-0.8-2-1.3c-0.6-0.5-1.1-1.1-1.6-1.8c-0.5-0.7-0.9-1.4-1.2-2.2
			c1.5,0.9,3.3,1.5,5.2,1.5c1.3,0,2.5-0.2,3.6-0.7c0.1,0,0.2-0.1,0.2-0.1c0,0,0,0,0,0c0.2-0.1,0.4-0.2,0.6-0.3
			c0.3-0.2,0.7-0.3,1-0.5c0.3-0.2,0.6-0.4,0.9-0.6c0.3-0.2,0.6-0.5,0.8-0.8c0.3-0.3,0.5-0.6,0.8-0.9c0.1-0.2,0.2-0.3,0.3-0.5
			c0.1-0.1,0.1-0.2,0.2-0.3c0,0,0.1-0.1,0.1-0.1c0,0,0.1,0,0.1,0.1c0,0.2,0,0.3,0.1,0.5c0.1,0.2,0.2,0.4,0.3,0.5
			c0,0,0.1,0.1,0.1,0.1c0.1,0.1,0.3,0.1,0.5,0.2c0.5,0.1,0.8-0.1,1.1-0.5c0,0,0.1-0.1,0.1-0.1c0.1-0.1,0.1-0.1,0.2-0.2c0,0,0,0,0,0
			c0,0,0,0,0,0c0.2-0.2,0.4-0.4,0.6-0.5c0.2-0.2,0.5-0.3,0.7-0.5c0.1,0,0.1-0.1,0.2-0.1c0.1,0,0.1-0.1,0.2-0.1
			c0.1,0,0.1-0.1,0.2-0.1c0,0,0.1,0,0.1-0.1c0.1,0,0.2-0.1,0.3-0.1c0.1,0,0.2-0.1,0.3-0.1c0.1,0,0.2-0.1,0.3-0.1
			c0.8-0.3,1.6-0.5,2.5-0.6c0.3,0,0.6,0,0.8-0.1c0.3,0,0.6,0,0.9,0c0.1,0,0.1,0,0.2,0c0,0,0.1,0,0.1,0c0.1,0,0.1,0,0.2,0
			c0.1,0,0.2,0,0.2,0c0,0,0,0,0.1,0c0.1,0,0.2,0,0.3,0c0,0,0.1,0,0.1,0c0.1,0,0.1,0,0.2,0c0.2,0,0.4,0.1,0.6,0.2c0,0,0,0,0,0
			c0,0,0,0,0,0c-0.8,0.1-1.6,0.3-2.4,0.6C78.8,2,78,2.4,77.4,2.9c-0.7,0.5-1.3,1.1-1.8,1.7c-0.4,0.5-0.7,1-1,1.5c0,0,0,0,0,0
			c-0.1,0.2-0.2,0.3-0.3,0.5c0,0,0,0,0,0c-0.4,0.9-0.7,1.9-0.8,2.8c-0.1,0.4-0.1,0.8-0.1,1.3c0,0.4,0,0.9,0.1,1.3c0,0,0,0-0.1,0
			c-0.2-0.6-0.7-1-1.2-1.3c-0.6-0.3-1.4-0.3-2-0.1c-0.3,0.1-0.6,0.4-0.9,0.6c0,0,0,0,0,0c-0.2,0.2-0.4,0.5-0.5,0.8v0
			C68.8,12.1,68.7,11.9,68.5,11.7z"/>
		<g>
			<path class="st6" d="M79.7,10.7c-1.7,0-3-1.4-3-3s1.4-3,3-3c1.7,0,3.1,1.4,3.1,3S81.4,10.7,79.7,10.7z"/>
			<path class="st6" d="M79.7,4.7c1.6,0,2.9,1.3,2.9,2.9s-1.3,2.9-2.9,2.9c-1.6,0-2.9-1.3-2.9-2.9S78.1,4.7,79.7,4.7 M79.7,4.5
				c-1.8,0-3.2,1.4-3.2,3.2s1.4,3.2,3.2,3.2c1.8,0,3.2-1.4,3.2-3.2S81.4,4.5,79.7,4.5L79.7,4.5z"/>
		</g>
		<g>
			<path class="st6" d="M63.2,4.6c-0.8,0-1.5-0.7-1.5-1.5s0.7-1.5,1.5-1.5c0.8,0,1.5,0.7,1.5,1.5S64,4.6,63.2,4.6z"/>
			<path class="st6" d="M63.2,1.8c0.7,0,1.3,0.6,1.3,1.3s-0.6,1.3-1.3,1.3s-1.3-0.6-1.3-1.3S62.5,1.8,63.2,1.8 M63.2,1.6
				c-0.9,0-1.6,0.7-1.6,1.6s0.7,1.6,1.6,1.6c0.9,0,1.6-0.7,1.6-1.6S64.1,1.6,63.2,1.6L63.2,1.6z"/>
		</g>
	</g>
	<g>
		<path class="st7" d="M28.6,11.7c0.1-0.1,0.2-0.1,0.3-0.1c0,0,0,0,0,0c0.1,0,0.2,0,0.3,0.1c0.2,0,0.4,0.1,0.5,0.1
			c0.1,0,0.2,0,0.3,0c0.1,0,0.2,0,0.3,0c0.1,0,0.2,0,0.3,0c0.1,0,0.2,0,0.3,0c0.1,0,0.2,0,0.3,0c0,0,0.1,0,0.1,0
			c0.8,0,1.6-0.1,2.4-0.3c0.8-0.2,1.5-0.5,2.2-0.8c0.7-0.4,1.4-0.8,2-1.3c0.6-0.5,1.1-1.1,1.6-1.8c0.5-0.7,0.9-1.4,1.2-2.2
			c-1.5,0.9-3.3,1.5-5.2,1.5c-1.3,0-2.5-0.2-3.6-0.7c-0.1,0-0.2-0.1-0.2-0.1c0,0,0,0,0,0c-0.2-0.1-0.4-0.2-0.6-0.3
			c-0.3-0.2-0.7-0.3-1-0.5c-0.3-0.2-0.6-0.4-0.9-0.6c-0.3-0.2-0.6-0.5-0.8-0.8c-0.3-0.3-0.5-0.6-0.8-0.9c-0.1-0.2-0.2-0.3-0.3-0.5
			c-0.1-0.1-0.1-0.2-0.2-0.3c0,0-0.1-0.1-0.1-0.1c0,0-0.1,0-0.1,0.1c0,0.2,0,0.3-0.1,0.5c-0.1,0.2-0.2,0.4-0.3,0.5
			c0,0-0.1,0.1-0.1,0.1c-0.1,0.1-0.3,0.1-0.5,0.2c-0.5,0.1-0.8-0.1-1.1-0.5c0,0-0.1-0.1-0.1-0.1c-0.1-0.1-0.1-0.1-0.2-0.2
			c0,0,0,0,0,0c0,0,0,0,0,0c-0.2-0.2-0.4-0.4-0.6-0.5C23.5,2.3,23.3,2.1,23,2c-0.1,0-0.1-0.1-0.2-0.1c-0.1,0-0.1-0.1-0.2-0.1
			c-0.1,0-0.1-0.1-0.2-0.1c0,0-0.1,0-0.1-0.1c-0.1,0-0.2-0.1-0.3-0.1c-0.1,0-0.2-0.1-0.3-0.1c-0.1,0-0.2-0.1-0.3-0.1
			c-0.8-0.3-1.6-0.5-2.5-0.6c-0.3,0-0.6,0-0.8-0.1c-0.3,0-0.6,0-0.9,0c-0.1,0-0.1,0-0.2,0c0,0-0.1,0-0.1,0c-0.1,0-0.1,0-0.2,0
			c-0.1,0-0.2,0-0.2,0c0,0,0,0-0.1,0c-0.1,0-0.2,0-0.3,0c0,0-0.1,0-0.1,0c-0.1,0-0.1,0-0.2,0c-0.2,0-0.4,0.1-0.6,0.2c0,0,0,0,0,0
			c0,0,0,0,0,0c0.8,0.1,1.6,0.3,2.4,0.6c0.8,0.3,1.5,0.7,2.2,1.2C20.4,3.4,21,4,21.5,4.6c0.4,0.5,0.7,1,1,1.5c0,0,0,0,0,0
			c0.1,0.2,0.2,0.3,0.3,0.5c0,0,0,0,0,0c0.4,0.9,0.7,1.9,0.8,2.8c0.1,0.4,0.1,0.8,0.1,1.3c0,0.4,0,0.9-0.1,1.3c0,0,0,0,0.1,0
			c0.2-0.6,0.7-1,1.2-1.3c0.6-0.3,1.4-0.3,2-0.1c0.3,0.1,0.6,0.4,0.9,0.6c0,0,0,0,0,0c0.2,0.2,0.4,0.5,0.5,0.8v0
			C28.3,12.1,28.4,11.9,28.6,11.7z"/>
		<g>
			<path class="st6" d="M17.4,10.7c-1.7,0-3.1-1.4-3.1-3s1.4-3,3.1-3c1.7,0,3,1.4,3,3S19.1,10.7,17.4,10.7z"/>
			<path class="st6" d="M17.4,4.7c1.6,0,2.9,1.3,2.9,2.9s-1.3,2.9-2.9,2.9s-2.9-1.3-2.9-2.9S15.8,4.7,17.4,4.7 M17.4,4.5
				c-1.8,0-3.2,1.4-3.2,3.2s1.4,3.2,3.2,3.2s3.2-1.4,3.2-3.2S19.2,4.5,17.4,4.5L17.4,4.5z"/>
		</g>
		<g>
			<circle class="st6" cx="33.9" cy="3.1" r="1.5"/>
			<path class="st6" d="M33.9,1.8c0.7,0,1.3,0.6,1.3,1.3s-0.6,1.3-1.3,1.3s-1.3-0.6-1.3-1.3S33.2,1.8,33.9,1.8 M33.9,1.6
				c-0.9,0-1.6,0.7-1.6,1.6s0.7,1.6,1.6,1.6s1.6-0.7,1.6-1.6S34.8,1.6,33.9,1.6L33.9,1.6z"/>
		</g>
	</g>
</g>
</svg>
